<svg width="29" height="28" viewBox="0 0 29 28" fill="none" xmlns="http://www.w3.org/2000/svg">
<g id="Group">
<g id="Group_2">
<path id="Vector" d="M20.6223 2.42128L20.626 2.34277C20.6492 1.87784 20.4927 1.44405 20.1862 1.12219C19.777 0.692577 19.1398 0.506366 18.4747 0.626183L11.3148 1.91549C10.9595 1.48079 10.4555 1.22624 9.9117 1.22624C9.45654 1.22624 9.00464 1.406 8.63959 1.73202L2.80893 6.93937C2.37142 7.33042 2.12756 7.87243 2.14104 8.42747C2.1443 8.57328 2.16796 8.71681 2.20561 8.85708C1.8141 9.13575 1.52796 9.59136 1.43557 10.151L0.34041 16.8052L0.261445 16.8029L0.314412 16.9613L0.191795 17.7048C0.0928894 18.3072 0.23779 18.8896 0.588444 19.303C0.793282 19.5445 1.05754 19.7061 1.35152 19.7957C2.59763 22.8095 5.18551 27.9347 8.3763 27.9347C8.84677 27.9347 9.31216 27.8241 9.75989 27.6063C11.6307 26.6951 11.4649 22.3762 11.1379 19.5584L11.1495 19.5579C12.142 19.524 13.1058 18.6564 13.3445 17.5822L13.4202 17.2399C13.8224 17.1688 14.1972 17.0095 14.5037 16.7694L16.5849 15.1373C16.8664 14.9162 17.0777 14.6306 17.2291 14.3171L18.06 14.2149C18.9982 14.0997 19.7863 13.4333 20.0451 12.6135C21.5912 13.051 23.7801 13.5708 25.4684 13.5708C25.4688 13.5708 25.4688 13.5708 25.4693 13.5708C26.818 13.5708 27.6889 13.2419 28.1311 12.5657C28.629 11.8036 28.7599 10.9448 28.5203 10.0131C27.7465 7.00765 23.0068 3.84709 20.6223 2.42128ZM26.9653 11.8045C26.9081 11.8922 26.6304 12.1788 25.4698 12.1788C25.4693 12.1788 25.4693 12.1788 25.4693 12.1788C23.8637 12.1788 21.6594 11.6308 20.1857 11.204L20.5438 4.00364C23.1043 5.60367 26.6169 8.2064 27.1719 10.3619C27.3118 10.9058 27.244 11.3777 26.9653 11.8045ZM18.7473 12.0702C18.745 12.1171 18.7325 12.1654 18.7153 12.2146C18.6168 12.4928 18.2917 12.7845 17.8905 12.8332L17.4562 12.8867C17.4144 12.6089 17.3234 12.3377 17.1803 12.0878L12.0835 3.19269L18.2513 2.08171L18.7218 1.9972C18.7738 1.98789 18.8249 1.98326 18.8732 1.98326C19.0061 1.98326 19.1166 2.01948 19.177 2.08268C19.1927 2.09942 19.2406 2.15004 19.2346 2.27403L19.2271 2.42128L18.7757 11.5017L18.7473 12.0702ZM15.7252 14.0422L15.0903 14.5401L13.794 15.5568L13.644 15.6743C13.4805 15.8024 13.2473 15.868 13.0091 15.8777C12.7648 15.8875 12.5177 15.835 12.3301 15.7207C12.2999 15.7022 12.2678 15.6854 12.2409 15.6636L7.32331 11.6842L5.4028 10.1302L3.75724 8.79858C3.70101 8.75304 3.65782 8.70196 3.62257 8.64905C3.56914 8.56917 3.53663 8.48278 3.5348 8.39404C3.53109 8.2468 3.60308 8.09955 3.73775 7.97928L9.5675 2.77141C9.63761 2.70873 9.71058 2.672 9.78394 2.64834C9.82668 2.6344 9.86988 2.61954 9.9121 2.61954C10.0649 2.61954 10.2047 2.71616 10.3046 2.89032L10.3789 3.01991L10.7848 3.72864L15.9718 12.7798C16.0201 12.8643 16.0498 12.9587 16.0679 13.0566C16.1116 13.2963 16.0693 13.5592 15.9499 13.7728C15.8915 13.8773 15.8167 13.9702 15.7252 14.0422ZM11.9836 17.2817C11.8745 17.775 11.4281 18.1558 11.1021 18.167L10.9502 18.1721L10.2461 18.1962L5.79905 18.3486L2.31988 18.4675L1.85541 18.4832L1.8429 19.1288L1.84153 19.1762V19.1265V18.4832C1.75885 18.4832 1.698 18.4572 1.65109 18.402C1.56658 18.3026 1.53544 18.1266 1.5675 17.9315L1.63252 17.5377L1.74679 16.8438L2.81133 10.3773C2.84149 10.1924 2.91817 10.0498 3.01148 9.98715L11.3641 16.7467C11.5582 16.9037 11.7821 17.0235 12.0208 17.1131L11.9836 17.2817ZM9.14954 26.3547C8.88991 26.481 8.63679 26.5423 8.37624 26.5423C6.44785 26.5423 4.30119 23.065 2.88555 19.8413L9.73383 19.6076C10.0993 22.8096 9.98232 25.9492 9.14954 26.3547Z" fill="#010002"/>
</g>
</g>
</svg>
