<svg width="17" height="3" viewBox="0 0 17 3" fill="none" xmlns="http://www.w3.org/2000/svg">
<g id="Group 692">
<path id="Vector" d="M5.25176 4.48653V2.9253C5.25176 2.51124 5.41624 2.11414 5.70903 1.82135C6.00182 1.52856 6.39892 1.36407 6.81299 1.36407H9.93545C10.3495 1.36407 10.7466 1.52856 11.0394 1.82135C11.3322 2.11414 11.4967 2.51124 11.4967 2.9253V4.48653M13.8385 4.48653V15.4151C13.8385 15.8292 13.674 16.2263 13.3812 16.5191C13.0885 16.8119 12.6914 16.9764 12.2773 16.9764H4.47114C4.05708 16.9764 3.65997 16.8119 3.36719 16.5191C3.0744 16.2263 2.90991 15.8292 2.90991 15.4151V4.48653H13.8385Z" stroke="#EE5253" stroke-width="1.48317" stroke-linecap="round" stroke-linejoin="round"/>
</g>
</svg>
