<svg width="31" height="31" viewBox="0 0 31 31" fill="none" xmlns="http://www.w3.org/2000/svg">
<g id="Group 683">
<g id="Group">
<g id="Group_2">
<g id="Vector">
<mask id="path-1-inside-1_401_2063" fill="white">
<path d="M30.4212 29.4303C30.5704 29.2712 30.6157 29.0403 30.537 28.8369L21.5203 5.44659C22.0009 4.61379 22.0919 3.57065 21.6726 2.6267C20.9763 1.05983 19.1351 0.351415 17.5681 1.04762C13.8733 2.68944 10.5876 5.0078 7.80226 7.9385C5.01694 10.8692 2.86855 14.2685 1.41673 18.0421C1.266 18.4339 1.20018 18.8378 1.21025 19.2336C1.24135 20.454 1.99402 21.596 3.20248 22.0609C4.01555 22.3737 4.88071 22.3202 5.61616 21.9825L29.8363 29.5837C30.0445 29.649 30.2718 29.5895 30.4212 29.4303ZM21.6789 9.01888L22.6344 11.4978C22.329 11.7995 21.9019 11.9536 21.4647 11.9073C21.0799 11.8665 20.7338 11.6783 20.4905 11.3774C20.2471 11.0764 20.1356 10.699 20.1763 10.3138C20.2171 9.92896 20.4052 9.58298 20.7062 9.33961C20.9835 9.11539 21.3259 9.00335 21.6789 9.01888ZM3.6108 20.9997C2.59558 20.6092 2.08739 19.4653 2.47807 18.4503C5.30695 11.0972 10.8301 5.28585 18.0299 2.08671C18.5114 1.87276 19.0474 1.85913 19.5392 2.04832C20.0309 2.23752 20.4196 2.60688 20.6335 3.08838C20.8475 3.56989 20.8611 4.1059 20.6719 4.59766C20.4827 5.08942 20.1133 5.47806 19.6318 5.69201C16.55 7.06131 13.8094 8.9951 11.4862 11.4396C9.16291 13.8841 7.37101 16.7195 6.16008 19.8669C5.76958 20.8821 4.6259 21.3903 3.6108 20.9997ZM20.9727 25.6103C20.9726 25.5588 20.9743 25.5073 20.9797 25.4557C21.0204 25.0709 21.2086 24.7249 21.5096 24.4816C21.8105 24.2383 22.1883 24.1267 22.5731 24.1674C23.3676 24.2515 23.9455 24.9662 23.8615 25.7609C23.8355 26.0061 23.7466 26.238 23.6074 26.4373L20.9727 25.6103ZM24.722 26.7869C24.8657 26.5062 24.9584 26.1995 24.9921 25.8806C25.1428 24.4625 24.1108 23.1869 22.6928 23.0368C22.0059 22.964 21.3318 23.1631 20.7947 23.5974C20.2773 24.0158 19.9473 24.6042 19.8588 25.2608L16.5272 24.2152L17.491 22.8909C17.6756 22.637 17.6197 22.2814 17.3658 22.0967C17.1119 21.912 16.7564 21.9681 16.5716 22.2219L15.3825 23.8561L6.71771 21.1368C6.92569 20.8849 7.09771 20.5966 7.2213 20.2754C9.56288 14.1892 14.1343 9.37915 20.0935 6.73133C20.3008 6.63928 20.4925 6.52658 20.6685 6.39774L21.2498 7.90578C20.7927 7.97058 20.3598 8.1577 19.9914 8.45555C19.4543 8.8898 19.1184 9.50732 19.0458 10.1942C19.0336 10.3092 19.029 10.4238 19.0319 10.5376C19.0462 11.1029 19.2448 11.6451 19.6063 12.0923C20.0407 12.6295 20.6581 12.9653 21.3451 13.038C21.9618 13.1033 22.5669 12.9444 23.063 12.6095L25.7614 19.6097L25.1219 19.8939C24.9053 19.9902 24.7786 20.2051 24.7843 20.4281C24.7861 20.5006 24.802 20.5739 24.8332 20.6443C24.9607 20.9311 25.2967 21.0604 25.5836 20.9329L26.1709 20.672L29.052 28.146L24.722 26.7869Z"/>
</mask>
<path d="M30.4212 29.4303C30.5704 29.2712 30.6157 29.0403 30.537 28.8369L21.5203 5.44659C22.0009 4.61379 22.0919 3.57065 21.6726 2.6267C20.9763 1.05983 19.1351 0.351415 17.5681 1.04762C13.8733 2.68944 10.5876 5.0078 7.80226 7.9385C5.01694 10.8692 2.86855 14.2685 1.41673 18.0421C1.266 18.4339 1.20018 18.8378 1.21025 19.2336C1.24135 20.454 1.99402 21.596 3.20248 22.0609C4.01555 22.3737 4.88071 22.3202 5.61616 21.9825L29.8363 29.5837C30.0445 29.649 30.2718 29.5895 30.4212 29.4303ZM21.6789 9.01888L22.6344 11.4978C22.329 11.7995 21.9019 11.9536 21.4647 11.9073C21.0799 11.8665 20.7338 11.6783 20.4905 11.3774C20.2471 11.0764 20.1356 10.699 20.1763 10.3138C20.2171 9.92896 20.4052 9.58298 20.7062 9.33961C20.9835 9.11539 21.3259 9.00335 21.6789 9.01888ZM3.6108 20.9997C2.59558 20.6092 2.08739 19.4653 2.47807 18.4503C5.30695 11.0972 10.8301 5.28585 18.0299 2.08671C18.5114 1.87276 19.0474 1.85913 19.5392 2.04832C20.0309 2.23752 20.4196 2.60688 20.6335 3.08838C20.8475 3.56989 20.8611 4.1059 20.6719 4.59766C20.4827 5.08942 20.1133 5.47806 19.6318 5.69201C16.55 7.06131 13.8094 8.9951 11.4862 11.4396C9.16291 13.8841 7.37101 16.7195 6.16008 19.8669C5.76958 20.8821 4.6259 21.3903 3.6108 20.9997ZM20.9727 25.6103C20.9726 25.5588 20.9743 25.5073 20.9797 25.4557C21.0204 25.0709 21.2086 24.7249 21.5096 24.4816C21.8105 24.2383 22.1883 24.1267 22.5731 24.1674C23.3676 24.2515 23.9455 24.9662 23.8615 25.7609C23.8355 26.0061 23.7466 26.238 23.6074 26.4373L20.9727 25.6103ZM24.722 26.7869C24.8657 26.5062 24.9584 26.1995 24.9921 25.8806C25.1428 24.4625 24.1108 23.1869 22.6928 23.0368C22.0059 22.964 21.3318 23.1631 20.7947 23.5974C20.2773 24.0158 19.9473 24.6042 19.8588 25.2608L16.5272 24.2152L17.491 22.8909C17.6756 22.637 17.6197 22.2814 17.3658 22.0967C17.1119 21.912 16.7564 21.9681 16.5716 22.2219L15.3825 23.8561L6.71771 21.1368C6.92569 20.8849 7.09771 20.5966 7.2213 20.2754C9.56288 14.1892 14.1343 9.37915 20.0935 6.73133C20.3008 6.63928 20.4925 6.52658 20.6685 6.39774L21.2498 7.90578C20.7927 7.97058 20.3598 8.1577 19.9914 8.45555C19.4543 8.8898 19.1184 9.50732 19.0458 10.1942C19.0336 10.3092 19.029 10.4238 19.0319 10.5376C19.0462 11.1029 19.2448 11.6451 19.6063 12.0923C20.0407 12.6295 20.6581 12.9653 21.3451 13.038C21.9618 13.1033 22.5669 12.9444 23.063 12.6095L25.7614 19.6097L25.1219 19.8939C24.9053 19.9902 24.7786 20.2051 24.7843 20.4281C24.7861 20.5006 24.802 20.5739 24.8332 20.6443C24.9607 20.9311 25.2967 21.0604 25.5836 20.9329L26.1709 20.672L29.052 28.146L24.722 26.7869Z" fill="black"/>
<path d="M30.4212 29.4303L32.2117 31.1102L32.212 31.1099L30.4212 29.4303ZM30.537 28.8369L28.246 29.72L28.2473 29.7232L30.537 28.8369ZM21.5203 5.44659L19.3938 4.21938L18.8075 5.23528L19.2294 6.32971L21.5203 5.44659ZM21.6726 2.6267L23.9165 1.63002L23.9163 1.62968L21.6726 2.6267ZM17.5681 1.04762L16.5713 -1.19613L16.5711 -1.19608L17.5681 1.04762ZM1.41673 18.0421L-0.874765 17.1604L-0.874836 17.1606L1.41673 18.0421ZM1.21025 19.2336L-1.2442 19.296L-1.2442 19.2961L1.21025 19.2336ZM3.20248 22.0609L4.08402 19.7693L4.08396 19.7693L3.20248 22.0609ZM5.61616 21.9825L6.35136 19.6399L5.45012 19.3571L4.5917 19.7512L5.61616 21.9825ZM29.8363 29.5837L29.1011 31.9263L29.1012 31.9263L29.8363 29.5837ZM21.6789 9.01888L23.9699 8.13584L23.392 6.63665L21.7868 6.56601L21.6789 9.01888ZM22.6344 11.4978L24.3597 13.2447L25.5036 12.115L24.9254 10.6148L22.6344 11.4978ZM21.4647 11.9073L21.2058 14.3489L21.2063 14.3489L21.4647 11.9073ZM20.1763 10.3138L17.7347 10.0551L17.7346 10.0561L20.1763 10.3138ZM20.7062 9.33961L22.2499 11.2489L22.2499 11.2489L20.7062 9.33961ZM3.6108 20.9997L4.49255 18.7083L4.49235 18.7082L3.6108 20.9997ZM2.47807 18.4503L4.76943 19.3323L4.76958 19.3319L2.47807 18.4503ZM18.0299 2.08671L19.0269 4.33043L19.0269 4.33043L18.0299 2.08671ZM19.5392 2.04832L20.4208 -0.243174L20.4207 -0.24321L19.5392 2.04832ZM19.6318 5.69201L20.6288 7.93575L20.6288 7.93573L19.6318 5.69201ZM6.16008 19.8669L3.86858 18.9853L3.86851 18.9855L6.16008 19.8669ZM20.9727 25.6103L18.5174 25.6131L18.5194 27.4136L20.2374 27.9529L20.9727 25.6103ZM20.9797 25.4557L18.5381 25.1971L18.5378 25.2L20.9797 25.4557ZM21.5096 24.4816L23.0532 26.3909L23.0534 26.3907L21.5096 24.4816ZM22.5731 24.1674L22.8317 21.7258L22.8314 21.7258L22.5731 24.1674ZM23.8615 25.7609L26.3031 26.0194L26.3032 26.0189L23.8615 25.7609ZM23.6074 26.4373L22.8721 28.7799L24.5897 29.319L25.6204 27.843L23.6074 26.4373ZM24.722 26.7869L22.5366 25.668L21.2104 28.2581L23.9868 29.1295L24.722 26.7869ZM24.9921 25.8806L22.5506 25.6213L22.5505 25.6222L24.9921 25.8806ZM22.6928 23.0368L22.4343 25.4783L22.4343 25.4784L22.6928 23.0368ZM20.7947 23.5974L19.251 21.6882L19.2509 21.6882L20.7947 23.5974ZM19.8588 25.2608L19.1236 27.6034L21.9029 28.4756L22.292 25.5888L19.8588 25.2608ZM16.5272 24.2152L14.542 22.7706L12.5307 25.5343L15.792 26.5578L16.5272 24.2152ZM17.491 22.8909L19.4762 24.3355L19.4765 24.335L17.491 22.8909ZM17.3658 22.0967L15.9213 24.0821L15.9215 24.0823L17.3658 22.0967ZM16.5716 22.2219L14.5865 20.7772L14.5864 20.7773L16.5716 22.2219ZM15.3825 23.8561L14.6473 26.1986L16.3301 26.7267L17.3678 25.3007L15.3825 23.8561ZM6.71771 21.1368L4.82452 19.5734L2.50128 22.3869L5.98253 23.4794L6.71771 21.1368ZM7.2213 20.2754L9.51277 21.1571L9.5128 21.157L7.2213 20.2754ZM20.0935 6.73133L19.097 4.48742L19.0966 4.4876L20.0935 6.73133ZM20.6685 6.39774L22.9594 5.51464L21.8058 2.52196L19.218 4.41675L20.6685 6.39774ZM21.2498 7.90578L21.5944 10.3367L24.6512 9.90344L23.5407 7.02268L21.2498 7.90578ZM19.9914 8.45555L21.535 10.3649L21.5351 10.3648L19.9914 8.45555ZM19.0458 10.1942L21.4873 10.453L21.4874 10.4525L19.0458 10.1942ZM19.6063 12.0923L17.697 13.6359L17.6971 13.636L19.6063 12.0923ZM21.3451 13.038L21.0864 15.4796L21.0868 15.4797L21.3451 13.038ZM23.063 12.6095L25.3539 11.7264L24.2449 8.84944L21.6893 10.5745L23.063 12.6095ZM25.7614 19.6097L26.7584 21.8535L28.8922 20.9054L28.0524 18.7266L25.7614 19.6097ZM25.1219 19.8939L24.125 17.6501L24.1245 17.6504L25.1219 19.8939ZM24.8332 20.6443L22.5891 21.6403L22.5894 21.6411L24.8332 20.6443ZM25.5836 20.9329L26.5804 23.1767L26.5804 23.1767L25.5836 20.9329ZM26.1709 20.672L28.4618 19.7889L27.5332 17.3801L25.174 18.4282L26.1709 20.672ZM29.052 28.146L28.3168 30.4885L33.1741 32.013L31.3429 27.2628L29.052 28.146ZM32.212 31.1099C33.0041 30.2653 33.2475 29.0378 32.8266 27.9505L28.2473 29.7232C27.9839 29.0428 28.1367 28.277 28.6303 27.7507L32.212 31.1099ZM32.8279 27.9537L23.8112 4.56347L19.2294 6.32971L28.246 29.72L32.8279 27.9537ZM23.6469 6.67381C24.501 5.19379 24.6694 3.32523 23.9165 1.63002L19.4288 3.62338C19.5143 3.81607 19.5009 4.03378 19.3938 4.21938L23.6469 6.67381ZM23.9163 1.62968C22.6694 -1.17627 19.3774 -2.44289 16.5713 -1.19613L18.565 3.29137C18.8929 3.14573 19.2832 3.29593 19.4289 3.62372L23.9163 1.62968ZM16.5711 -1.19608C12.5817 0.576639 9.03003 3.08265 6.02256 6.24709L9.58196 9.62992C12.1451 6.93295 15.1649 4.80224 18.5652 3.29132L16.5711 -1.19608ZM6.02256 6.24709C3.01512 9.4115 0.692821 13.086 -0.874765 17.1604L3.70823 18.9237C5.04427 15.451 7.01875 12.3269 9.58196 9.62992L6.02256 6.24709ZM-0.874836 17.1606C-1.14349 17.8591 -1.26231 18.5842 -1.2442 19.296L3.6647 19.1712C3.66267 19.0915 3.67549 19.0088 3.70831 18.9235L-0.874836 17.1606ZM-1.2442 19.2961C-1.18877 21.4716 0.151002 23.5177 2.32099 24.3524L4.08396 19.7693C3.83703 19.6743 3.67146 19.4364 3.6647 19.1711L-1.2442 19.2961ZM2.32093 24.3524C3.77978 24.9136 5.33201 24.8146 6.64062 24.2138L4.5917 19.7512C4.42941 19.8257 4.25131 19.8337 4.08402 19.7693L2.32093 24.3524ZM4.88097 24.3251L29.1011 31.9263L30.5715 27.2411L6.35136 19.6399L4.88097 24.3251ZM29.1012 31.9263C30.2082 32.2737 31.4171 31.9571 32.2117 31.1102L28.6306 27.7504C29.1265 27.2218 29.8808 27.0244 30.5714 27.2411L29.1012 31.9263ZM19.388 9.90193L20.3435 12.3809L24.9254 10.6148L23.9699 8.13584L19.388 9.90193ZM20.9091 9.75094C21.1211 9.54165 21.4195 9.4336 21.7231 9.46573L21.2063 14.3489C22.3842 14.4736 23.5369 14.0573 24.3597 13.2447L20.9091 9.75094ZM21.7237 9.46579C21.9858 9.4936 22.2335 9.62812 22.3996 9.83354L18.5813 12.9212C19.2342 13.7285 20.1739 14.2394 21.2058 14.3489L21.7237 9.46579ZM22.3996 9.83354C22.5661 10.0395 22.6455 10.3101 22.618 10.5714L17.7346 10.0561C17.6257 11.0878 17.9281 12.1134 18.5813 12.9212L22.3996 9.83354ZM22.6179 10.5724C22.5901 10.8349 22.4554 11.0827 22.2499 11.2489L19.1625 7.43035C18.355 8.08325 17.844 9.02306 17.7347 10.0551L22.6179 10.5724ZM22.2499 11.2489C22.0612 11.4014 21.8162 11.4825 21.571 11.4718L21.7868 6.56601C20.8357 6.52416 19.9058 6.82935 19.1625 7.43037L22.2499 11.2489ZM4.49235 18.7082C4.74267 18.8045 4.86599 19.0814 4.76943 19.3323L0.186697 17.5684C-0.691205 19.8492 0.448494 22.4138 2.72925 23.2912L4.49235 18.7082ZM4.76958 19.3319C7.36464 12.5866 12.4221 7.26516 19.0269 4.33043L17.0329 -0.157009C9.23807 3.30653 3.24926 9.60785 0.186556 17.5687L4.76958 19.3319ZM19.0269 4.33043C18.9132 4.38091 18.7735 4.38442 18.6576 4.33986L20.4207 -0.24321C19.3212 -0.666169 18.1095 -0.635394 17.0329 -0.157007L19.0269 4.33043ZM18.6575 4.33982C18.5416 4.2952 18.4402 4.1989 18.3898 4.08535L22.8772 2.09141C22.3989 1.01485 21.5203 0.17984 20.4208 -0.243174L18.6575 4.33982ZM18.3898 4.08535C18.3393 3.97177 18.3358 3.83204 18.3804 3.71604L22.9634 5.47929C23.3864 4.37977 23.3556 3.168 22.8772 2.09141L18.3898 4.08535ZM18.3804 3.71604C18.425 3.60007 18.5213 3.49875 18.6349 3.44829L20.6288 7.93573C21.7054 7.45737 22.5404 6.57877 22.9634 5.47929L18.3804 3.71604ZM18.6349 3.44827C15.2584 4.94851 12.2518 7.06998 9.70647 9.7482L13.2659 13.131C15.367 10.9202 17.8416 9.17412 20.6288 7.93575L18.6349 3.44827ZM9.70647 9.7482C7.16109 12.4264 5.19527 15.5369 3.86858 18.9853L8.45158 20.7485C9.54674 17.902 11.1647 15.3418 13.2659 13.131L9.70647 9.7482ZM3.86851 18.9855C3.96484 18.7351 4.24193 18.6118 4.49255 18.7083L2.72905 23.2912C5.00988 24.1688 7.57433 23.0292 8.45165 20.7484L3.86851 18.9855ZM23.4279 25.6076C23.4279 25.6085 23.4279 25.6188 23.4272 25.6358C23.4265 25.653 23.425 25.6789 23.4215 25.7115L18.5378 25.2C18.5203 25.3663 18.5173 25.5102 18.5174 25.6131L23.4279 25.6076ZM23.4212 25.7144C23.3934 25.977 23.2587 26.2248 23.0532 26.3909L19.9659 22.5723C19.1585 23.2251 18.6474 24.1649 18.5381 25.1971L23.4212 25.7144ZM23.0534 26.3907C22.8479 26.557 22.5773 26.6368 22.3148 26.609L22.8314 21.7258C21.7992 21.6166 20.7731 21.9196 19.9657 22.5725L23.0534 26.3907ZM22.3145 26.609C21.7604 26.5503 21.3614 26.0561 21.4198 25.503L26.3032 26.0189C26.5295 23.8763 24.9748 21.9528 22.8317 21.7258L22.3145 26.609ZM21.4199 25.5025C21.4389 25.323 21.5032 25.1621 21.5944 25.0316L25.6204 27.843C25.99 27.3138 26.2322 26.6892 26.3031 26.0194L21.4199 25.5025ZM24.3427 24.0947L21.7079 23.2678L20.2374 27.9529L22.8721 28.7799L24.3427 24.0947ZM26.9074 27.9059C27.1867 27.3604 27.3678 26.7623 27.4338 26.139L22.5505 25.6222C22.549 25.6366 22.5447 25.6521 22.5366 25.668L26.9074 27.9059ZM27.4337 26.1399C27.7277 23.3718 25.7168 20.8879 22.9512 20.5952L22.4343 25.4784C22.4679 25.4819 22.4966 25.4961 22.5216 25.527C22.5466 25.5579 22.5541 25.5884 22.5506 25.6213L27.4337 26.1399ZM22.9513 20.5952C21.6168 20.4539 20.2945 20.8445 19.251 21.6882L22.3384 25.5067C22.3577 25.491 22.3727 25.4847 22.3831 25.4816C22.3936 25.4785 22.4095 25.4757 22.4343 25.4783L22.9513 20.5952ZM19.2509 21.6882C18.2453 22.5014 17.5977 23.6559 17.4256 24.9328L22.292 25.5888C22.2951 25.5661 22.301 25.5521 22.3062 25.5429C22.3113 25.5338 22.3202 25.5214 22.3384 25.5067L19.2509 21.6882ZM20.594 22.9182L17.2624 21.8726L15.792 26.5578L19.1236 27.6034L20.594 22.9182ZM18.5124 25.6599L19.4762 24.3355L15.5057 21.4462L14.542 22.7706L18.5124 25.6599ZM19.4765 24.335C20.4578 22.9859 20.1618 21.0944 18.81 20.1112L15.9215 24.0823C15.0776 23.4684 14.8933 22.2882 15.5054 21.4467L19.4765 24.335ZM18.8103 20.1114C17.4599 19.1289 15.569 19.4271 14.5865 20.7772L18.5568 23.6666C17.9438 24.509 16.7639 24.6951 15.9213 24.0821L18.8103 20.1114ZM14.5864 20.7773L13.3972 22.4114L17.3678 25.3007L18.5569 23.6665L14.5864 20.7773ZM16.1177 21.5135L7.45288 18.7942L5.98253 23.4794L14.6473 26.1986L16.1177 21.5135ZM8.6109 22.7001C8.9822 22.2505 9.29109 21.7332 9.51277 21.1571L4.92984 19.3937C4.90433 19.46 4.86918 19.5194 4.82452 19.5734L8.6109 22.7001ZM9.5128 21.157C11.6206 15.6785 15.7263 11.3585 21.0905 8.97506L19.0966 4.4876C12.5423 7.39984 7.50519 12.6998 4.9298 19.3938L9.5128 21.157ZM21.0901 8.97524C21.4641 8.80915 21.8073 8.60692 22.119 8.37873L19.218 4.41675C19.1777 4.44625 19.1375 4.46941 19.097 4.48742L21.0901 8.97524ZM18.3776 7.28084L18.9589 8.78888L23.5407 7.02268L22.9594 5.51464L18.3776 7.28084ZM20.9052 5.47483C20.0068 5.60218 19.1598 5.97049 18.4477 6.54634L21.5351 10.3648C21.5487 10.3538 21.5598 10.3477 21.568 10.3441C21.5763 10.3405 21.5848 10.3381 21.5944 10.3367L20.9052 5.47483ZM18.4478 6.54621C17.4041 7.38996 16.7453 8.60143 16.6041 9.93588L21.4874 10.4525C21.49 10.4278 21.4961 10.4128 21.5013 10.4032C21.5064 10.3937 21.5157 10.3805 21.535 10.3649L18.4478 6.54621ZM16.6042 9.93532C16.5808 10.1562 16.5718 10.3781 16.5774 10.6L21.4863 10.4751C21.4862 10.4695 21.4863 10.4623 21.4873 10.453L16.6042 9.93532ZM16.5774 10.6C16.6056 11.7075 16.997 12.77 17.697 13.6359L21.5157 10.5487C21.5024 10.5323 21.496 10.5192 21.4926 10.5099C21.4892 10.5006 21.4867 10.4896 21.4863 10.4751L16.5774 10.6ZM17.6971 13.636C18.5409 14.6796 19.7521 15.3383 21.0864 15.4796L21.6037 10.5965C21.5788 10.5938 21.5637 10.5877 21.5541 10.5825C21.5446 10.5773 21.5313 10.568 21.5156 10.5486L17.6971 13.636ZM21.0868 15.4797C22.2905 15.607 23.4716 15.2959 24.4366 14.6445L21.6893 10.5745C21.6621 10.5928 21.633 10.5996 21.6034 10.5964L21.0868 15.4797ZM20.7721 13.4926L23.4705 20.4928L28.0524 18.7266L25.3539 11.7264L20.7721 13.4926ZM24.7645 17.366L24.125 17.6501L26.1188 22.1376L26.7584 21.8535L24.7645 17.366ZM24.1245 17.6504C22.9699 18.1637 22.2998 19.3091 22.3298 20.4905L27.2387 20.3657C27.2574 21.1011 26.8408 21.8167 26.1193 22.1374L24.1245 17.6504ZM22.3298 20.4905C22.3397 20.8805 22.4253 21.2714 22.5891 21.6403L27.0773 19.6482C27.1786 19.8763 27.2325 20.1206 27.2387 20.3657L22.3298 20.4905ZM22.5894 21.6411C23.2676 23.1675 25.0547 23.8545 26.5804 23.1767L24.5867 18.6891C25.5387 18.2662 26.6537 18.6947 27.077 19.6474L22.5894 21.6411ZM26.5804 23.1767L27.1678 22.9158L25.174 18.4282L24.5867 18.6892L26.5804 23.1767ZM23.88 21.5551L26.7611 29.0291L31.3429 27.2628L28.4618 19.7889L23.88 21.5551ZM29.7872 25.8034L25.4572 24.4444L23.9868 29.1295L28.3168 30.4885L29.7872 25.8034Z" fill="#0A191E" mask="url(#path-1-inside-1_401_2063)"/>
</g>
</g>
</g>
<g id="Group_3">
<g id="Group_4">
<path id="Vector_2" d="M14.9101 6.22366C14.9118 6.22613 14.9135 6.2286 14.9152 6.23108C14.9152 6.23108 14.9152 6.23109 14.9152 6.23109C14.9794 6.32552 15.0114 6.43259 15.0135 6.53908C15.0171 6.72117 14.9332 6.90161 14.7729 7.01441L14.7698 7.0166L14.7634 7.02105L14.7606 7.02296C14.5037 7.19751 14.1548 7.1331 13.9768 6.87987L14.4368 6.55645L14.4407 6.55365L14.4415 6.55315L14.4416 6.55308L14.443 6.5521L14.4447 6.55084L14.446 6.54999L14.4485 6.54818L14.449 6.54781L14.9101 6.22366ZM14.9101 6.22366C14.7313 5.96943 14.3813 5.90679 14.1252 6.0811C14.1242 6.08178 14.1232 6.08247 14.1222 6.08316C14.1213 6.08375 14.1205 6.08434 14.1196 6.08494C14.1194 6.0851 14.1191 6.08527 14.1189 6.08543C14.1127 6.08971 14.1066 6.09408 14.1006 6.09856C13.9486 6.21239 13.869 6.3895 13.8735 6.56808C13.8762 6.67325 13.9081 6.77888 13.9715 6.87227C13.9733 6.87481 13.975 6.87733 13.9768 6.87983L14.4367 6.55643L14.4407 6.55365L14.4414 6.55312L14.4415 6.55305L14.4429 6.55207L14.4447 6.55081L14.4459 6.54996L14.4471 6.54915L14.4476 6.54879L14.9101 6.22366Z" fill="black" stroke="#0A191E" stroke-width="2.45524"/>
</g>
</g>
<g id="Group_5">
<g id="Group_6">
<g id="Vector_3">
<mask id="path-4-inside-2_401_2063" fill="white">
<path d="M16.15 6.12343C17.1069 5.54493 18.1105 5.02126 19.1327 4.567C19.4197 4.43954 19.5488 4.10342 19.4213 3.8167C19.2939 3.52975 18.9579 3.40057 18.671 3.52808C17.6054 4.00158 16.5593 4.54749 15.5618 5.15051C15.3807 5.26004 15.2825 5.45452 15.2875 5.65194C15.29 5.74741 15.3165 5.84358 15.3694 5.93106C15.5319 6.19972 15.8814 6.28591 16.15 6.12343Z"/>
</mask>
<path d="M16.15 6.12343C17.1069 5.54493 18.1105 5.02126 19.1327 4.567C19.4197 4.43954 19.5488 4.10342 19.4213 3.8167C19.2939 3.52975 18.9579 3.40057 18.671 3.52808C17.6054 4.00158 16.5593 4.54749 15.5618 5.15051C15.3807 5.26004 15.2825 5.45452 15.2875 5.65194C15.29 5.74741 15.3165 5.84358 15.3694 5.93106C15.5319 6.19972 15.8814 6.28591 16.15 6.12343Z" fill="black"/>
<path d="M16.15 6.12343L14.8798 4.02231L14.8794 4.02252L16.15 6.12343ZM19.1327 4.567L18.1362 2.32308L18.1356 2.32332L19.1327 4.567ZM19.4213 3.8167L17.1775 4.81338L17.1777 4.814L19.4213 3.8167ZM18.671 3.52808L19.668 5.7718L19.6682 5.77169L18.671 3.52808ZM15.5618 5.15051L14.2916 3.04939L14.2914 3.04954L15.5618 5.15051ZM15.3694 5.93106L13.2684 7.20142L13.2685 7.20164L15.3694 5.93106ZM17.4203 8.22456C18.2891 7.69928 19.2014 7.22321 20.1298 6.81068L18.1356 2.32332C17.0195 2.81931 15.9247 3.39059 14.8798 4.02231L17.4203 8.22456ZM20.1292 6.81092C21.6569 6.13249 22.3428 4.34447 21.6649 2.8194L17.1777 4.814C16.7547 3.86238 17.1825 2.74659 18.1362 2.32308L20.1292 6.81092ZM21.6652 2.82003C20.987 1.29326 19.1997 0.606287 17.6738 1.28447L19.6682 5.77169C18.7162 6.19485 17.6007 5.76625 17.1775 4.81338L21.6652 2.82003ZM17.674 1.28437C16.5144 1.79964 15.377 2.39318 14.2916 3.04939L16.8321 7.25163C17.7415 6.70181 18.6964 6.20353 19.668 5.7718L17.674 1.28437ZM14.2914 3.04954C13.326 3.6333 12.8065 4.67086 12.8331 5.71437L17.742 5.58952C17.7585 6.23817 17.4354 6.88678 16.8323 7.25149L14.2914 3.04954ZM12.8331 5.71437C12.8461 6.22496 12.9889 6.73921 13.2684 7.20142L17.4705 4.66071C17.6441 4.94795 17.7338 5.26987 17.742 5.58952L12.8331 5.71437ZM13.2685 7.20164C14.1322 8.62979 15.9908 9.08904 17.4206 8.22435L14.8794 4.02252C15.7719 3.48278 16.9316 3.76965 17.4703 4.66048L13.2685 7.20164Z" fill="#0A191E" mask="url(#path-4-inside-2_401_2063)"/>
</g>
</g>
</g>
<g id="Group_7">
<g id="Group_8">
<g id="Vector_4">
<mask id="path-6-inside-3_401_2063" fill="white">
<path d="M23.0283 18.4673C23.0403 18.3543 23.0449 18.2397 23.042 18.1267C23.0092 16.8357 22.0148 15.7595 20.729 15.6234C19.311 15.4733 18.0352 16.5047 17.8851 17.9227C17.8731 18.0357 17.8685 18.1503 17.8714 18.2633C17.9042 19.5542 18.8986 20.6304 20.1845 20.7666C21.6024 20.9166 22.8781 19.8852 23.0283 18.4673ZM20.3042 19.636C19.5836 19.5597 19.0264 18.9571 19.008 18.2344C19.0064 18.1708 19.009 18.1062 19.0158 18.0424C19.0999 17.2478 19.8148 16.67 20.6093 16.7541C21.3298 16.8304 21.887 17.4329 21.9054 18.1556C21.907 18.2192 21.9044 18.2838 21.8976 18.3476C21.8134 19.1421 21.0986 19.7201 20.3042 19.636Z"/>
</mask>
<path d="M23.0283 18.4673C23.0403 18.3543 23.0449 18.2397 23.042 18.1267C23.0092 16.8357 22.0148 15.7595 20.729 15.6234C19.311 15.4733 18.0352 16.5047 17.8851 17.9227C17.8731 18.0357 17.8685 18.1503 17.8714 18.2633C17.9042 19.5542 18.8986 20.6304 20.1845 20.7666C21.6024 20.9166 22.8781 19.8852 23.0283 18.4673ZM20.3042 19.636C19.5836 19.5597 19.0264 18.9571 19.008 18.2344C19.0064 18.1708 19.009 18.1062 19.0158 18.0424C19.0999 17.2478 19.8148 16.67 20.6093 16.7541C21.3298 16.8304 21.887 17.4329 21.9054 18.1556C21.907 18.2192 21.9044 18.2838 21.8976 18.3476C21.8134 19.1421 21.0986 19.7201 20.3042 19.636Z" fill="black"/>
<path d="M23.0283 18.4673L20.5868 18.2075L20.5867 18.2088L23.0283 18.4673ZM20.729 15.6234L20.4705 18.065L20.4706 18.065L20.729 15.6234ZM17.8851 17.9227L20.3266 18.1825L20.3267 18.1812L17.8851 17.9227ZM20.1845 20.7666L19.926 23.2082L19.9261 23.2082L20.1845 20.7666ZM20.3042 19.636L20.0456 22.0776L20.0458 22.0776L20.3042 19.636ZM19.0158 18.0424L21.4572 18.3024L21.4574 18.301L19.0158 18.0424ZM20.6093 16.7541L20.8679 14.3125L20.8677 14.3125L20.6093 16.7541ZM21.8976 18.3476L19.4562 18.0876L19.456 18.0888L21.8976 18.3476ZM25.4697 18.7271C25.4931 18.507 25.5021 18.2847 25.4965 18.0643L20.5876 18.1891C20.5877 18.1946 20.5874 18.2016 20.5868 18.2075L25.4697 18.7271ZM25.4965 18.0643C25.4322 15.5393 23.4963 13.4473 20.9874 13.1818L20.4706 18.065C20.4975 18.0679 20.5259 18.0799 20.5521 18.1082C20.5782 18.1365 20.5869 18.1645 20.5876 18.1891L25.4965 18.0643ZM20.9875 13.1818C18.2212 12.889 15.7364 14.8977 15.4435 17.6642L20.3267 18.1812C20.3302 18.1479 20.3443 18.1194 20.3753 18.0943C20.4063 18.0693 20.4372 18.0615 20.4705 18.065L20.9875 13.1818ZM15.4437 17.6629C15.4202 17.883 15.4113 18.1053 15.4169 18.3257L20.3258 18.2009C20.3257 18.1954 20.326 18.1884 20.3266 18.1825L15.4437 17.6629ZM15.4169 18.3257C15.4812 20.8508 17.4172 22.9426 19.926 23.2082L20.443 18.325C20.4159 18.3221 20.3875 18.3101 20.3613 18.2817C20.3352 18.2534 20.3265 18.2254 20.3258 18.2009L15.4169 18.3257ZM19.9261 23.2082C22.6923 23.5009 25.177 21.4922 25.4699 18.7258L20.5867 18.2088C20.5831 18.2421 20.5691 18.2706 20.5381 18.2957C20.5071 18.3207 20.4762 18.3285 20.4429 18.325L19.9261 23.2082ZM20.5627 17.1944C21.0632 17.2474 21.4494 17.6588 21.4625 18.1719L16.5536 18.2968C16.6034 20.2554 18.104 21.872 20.0456 22.0776L20.5627 17.1944ZM21.4625 18.1719C21.4636 18.2155 21.4619 18.2586 21.4572 18.3024L16.5743 17.7825C16.5561 17.9539 16.5492 18.1262 16.5536 18.2968L21.4625 18.1719ZM21.4574 18.301C21.3987 18.8551 20.9045 19.2543 20.3509 19.1957L20.8677 14.3125C18.725 14.0857 16.8011 15.6406 16.5742 17.7839L21.4574 18.301ZM20.3508 19.1957C19.8501 19.1426 19.464 18.7311 19.4509 18.218L24.3598 18.0932C24.31 16.1346 22.8095 14.5181 20.8679 14.3125L20.3508 19.1957ZM19.4509 18.218C19.4498 18.1745 19.4515 18.1314 19.4562 18.0876L24.3391 18.6075C24.3573 18.4361 24.3641 18.2638 24.3598 18.0932L19.4509 18.218ZM19.456 18.0888C19.5147 17.5353 20.0084 17.1357 20.5626 17.1944L20.0458 22.0776C22.1889 22.3044 24.1121 20.7488 24.3392 18.6063L19.456 18.0888Z" fill="#0A191E" mask="url(#path-6-inside-3_401_2063)"/>
</g>
</g>
</g>
<g id="Group_9">
<g id="Group_10">
<g id="Vector_5">
<mask id="path-8-inside-4_401_2063" fill="white">
<path d="M15.9548 18.4992C15.9668 18.3862 15.9714 18.2716 15.9685 18.1587C15.9357 16.8677 14.9413 15.7915 13.6555 15.6554C12.9685 15.5826 12.2945 15.7817 11.7573 16.216C11.2202 16.6503 10.8843 17.2677 10.8115 17.9547C10.7996 18.0676 10.795 18.1821 10.7979 18.2951C10.8307 19.5861 11.8251 20.6623 13.111 20.7985C14.5289 20.9486 15.8046 19.9172 15.9548 18.4992ZM13.2306 19.6679C12.5101 19.5916 11.9529 18.989 11.9345 18.2663C11.9329 18.2028 11.9355 18.1382 11.9422 18.0744C11.9831 17.6895 12.1712 17.3436 12.4722 17.1002C12.7731 16.8568 13.1508 16.7453 13.5358 16.786C14.2563 16.8623 14.8135 17.4649 14.8319 18.1876C14.8335 18.2511 14.8309 18.3157 14.8241 18.3795C14.74 19.174 14.0252 19.752 13.2306 19.6679Z"/>
</mask>
<path d="M15.9548 18.4992C15.9668 18.3862 15.9714 18.2716 15.9685 18.1587C15.9357 16.8677 14.9413 15.7915 13.6555 15.6554C12.9685 15.5826 12.2945 15.7817 11.7573 16.216C11.2202 16.6503 10.8843 17.2677 10.8115 17.9547C10.7996 18.0676 10.795 18.1821 10.7979 18.2951C10.8307 19.5861 11.8251 20.6623 13.111 20.7985C14.5289 20.9486 15.8046 19.9172 15.9548 18.4992ZM13.2306 19.6679C12.5101 19.5916 11.9529 18.989 11.9345 18.2663C11.9329 18.2028 11.9355 18.1382 11.9422 18.0744C11.9831 17.6895 12.1712 17.3436 12.4722 17.1002C12.7731 16.8568 13.1508 16.7453 13.5358 16.786C14.2563 16.8623 14.8135 17.4649 14.8319 18.1876C14.8335 18.2511 14.8309 18.3157 14.8241 18.3795C14.74 19.174 14.0252 19.752 13.2306 19.6679Z" fill="black"/>
<path d="M15.9548 18.4992L13.5133 18.2396L13.5132 18.2405L15.9548 18.4992ZM13.6555 15.6554L13.3968 18.097L13.3971 18.097L13.6555 15.6554ZM11.7573 16.216L13.3009 18.1254L13.3009 18.1253L11.7573 16.216ZM10.8115 17.9547L13.2531 18.2134L13.2531 18.2133L10.8115 17.9547ZM13.111 20.7985L13.3696 18.3569L13.3695 18.3569L13.111 20.7985ZM13.2306 19.6679L12.9721 22.1095L12.9724 22.1095L13.2306 19.6679ZM11.9422 18.0744L9.50069 17.8155L9.5006 17.8164L11.9422 18.0744ZM13.5358 16.786L13.7944 14.3444L13.7943 14.3444L13.5358 16.786ZM14.8241 18.3795L12.3827 18.1196L12.3826 18.1209L14.8241 18.3795ZM18.3963 18.7588C18.4197 18.5389 18.4286 18.3168 18.423 18.0962L13.5141 18.2211C13.5142 18.2265 13.514 18.2335 13.5133 18.2396L18.3963 18.7588ZM18.423 18.0962C18.3588 15.5712 16.4227 13.4793 13.9138 13.2138L13.3971 18.097C13.424 18.0998 13.4524 18.1118 13.4786 18.1402C13.5047 18.1685 13.5135 18.1965 13.5141 18.2211L18.423 18.0962ZM13.9141 13.2138C12.5795 13.0724 11.2572 13.4631 10.2137 14.3067L13.3009 18.1253C13.3204 18.1096 13.3353 18.1033 13.3457 18.1002C13.3561 18.0971 13.3721 18.0943 13.3968 18.097L13.9141 13.2138ZM10.2137 14.3067C9.17005 15.1504 8.51131 16.3617 8.36995 17.696L13.2531 18.2133C13.2557 18.1885 13.2619 18.1734 13.2671 18.1638C13.2723 18.1542 13.2816 18.141 13.3009 18.1254L10.2137 14.3067ZM8.36996 17.6959C8.34664 17.916 8.33786 18.1378 8.34345 18.3575L13.2523 18.2326C13.2522 18.2264 13.2525 18.2192 13.2531 18.2134L8.36996 17.6959ZM8.34345 18.3575C8.40767 20.8825 10.3437 22.9745 12.8526 23.2401L13.3695 18.3569C13.3425 18.354 13.3141 18.342 13.2879 18.3136C13.2617 18.2853 13.253 18.2572 13.2523 18.2326L8.34345 18.3575ZM12.8524 23.24C15.619 23.5331 18.1033 21.524 18.3964 18.7579L13.5132 18.2405C13.5097 18.2739 13.4956 18.3026 13.4646 18.3276C13.4336 18.3527 13.4028 18.3604 13.3696 18.3569L12.8524 23.24ZM13.4892 17.2263C13.9898 17.2793 14.3759 17.6908 14.3889 18.2038L9.48004 18.3287C9.52986 20.2872 11.0304 21.9039 12.9721 22.1095L13.4892 17.2263ZM14.3889 18.2038C14.3901 18.2489 14.3882 18.2914 14.3839 18.3325L9.5006 17.8164C9.48277 17.985 9.47567 18.1567 9.48004 18.3287L14.3889 18.2038ZM14.3838 18.3334C14.356 18.5957 14.2214 18.8433 14.016 19.0093L10.9283 15.1911C10.1211 15.8438 9.61015 16.7834 9.50069 17.8155L14.3838 18.3334ZM14.016 19.0093C13.8105 19.1755 13.5398 19.2554 13.2772 19.2276L13.7943 14.3444C12.7619 14.2351 11.7358 14.5381 10.9283 15.1911L14.016 19.0093ZM13.2772 19.2276C12.7767 19.1746 12.3905 18.7632 12.3774 18.25L17.2863 18.1251C17.2365 16.1665 15.7359 14.55 13.7944 14.3444L13.2772 19.2276ZM12.3774 18.25C12.3763 18.2064 12.378 18.1634 12.3827 18.1196L17.2656 18.6395C17.2838 18.4681 17.2907 18.2958 17.2863 18.1251L12.3774 18.25ZM12.3826 18.1209C12.4412 17.5669 12.9352 17.1677 13.4889 17.2263L12.9724 22.1095C15.1151 22.3362 17.0388 20.781 17.2657 18.6381L12.3826 18.1209Z" fill="#0A191E" mask="url(#path-8-inside-4_401_2063)"/>
</g>
</g>
</g>
<g id="Group_11">
<g id="Group_12">
<g id="Vector_6">
<mask id="path-10-inside-5_401_2063" fill="white">
<path d="M18.2157 14.6909L18.4012 12.9383C18.4346 12.6263 18.208 12.3462 17.8958 12.3132C17.5836 12.28 17.3037 12.5064 17.2706 12.8186L17.0851 14.5711C17.0824 14.5964 17.0814 14.6214 17.082 14.6462C17.0892 14.927 17.3036 15.1659 17.5905 15.1963C17.9027 15.2294 18.1826 15.0032 18.2157 14.6909Z"/>
</mask>
<path d="M18.2157 14.6909L18.4012 12.9383C18.4346 12.6263 18.208 12.3462 17.8958 12.3132C17.5836 12.28 17.3037 12.5064 17.2706 12.8186L17.0851 14.5711C17.0824 14.5964 17.0814 14.6214 17.082 14.6462C17.0892 14.927 17.3036 15.1659 17.5905 15.1963C17.9027 15.2294 18.1826 15.0032 18.2157 14.6909Z" fill="black"/>
<path d="M18.2157 14.6909L15.7741 14.4324L15.7741 14.4324L18.2157 14.6909ZM18.4012 12.9383L15.9599 12.677L15.9596 12.6798L18.4012 12.9383ZM17.8958 12.3132L17.6369 14.7547L17.6373 14.7548L17.8958 12.3132ZM17.2706 12.8186L14.8291 12.56L14.829 12.5601L17.2706 12.8186ZM17.0851 14.5711L19.5263 14.8333L19.5267 14.8297L17.0851 14.5711ZM17.5905 15.1963L17.8499 12.7548L17.8487 12.7546L17.5905 15.1963ZM20.6573 14.9494L20.8428 13.1969L15.9596 12.6798L15.7741 14.4324L20.6573 14.9494ZM20.8425 13.1997C21.0207 11.5351 19.813 10.0472 18.1544 9.87157L17.6373 14.7548C16.603 14.6452 15.8486 13.7174 15.9599 12.677L20.8425 13.1997ZM18.1548 9.87161C16.4936 9.69543 15.0049 10.8996 14.8291 12.56L19.7122 13.0771C19.6025 14.1132 18.6736 14.8647 17.6369 14.7547L18.1548 9.87161ZM14.829 12.5601L14.6435 14.3126L19.5267 14.8297L19.7122 13.0771L14.829 12.5601ZM14.6439 14.309C14.6293 14.4449 14.6243 14.5784 14.6276 14.7086L19.5365 14.5837C19.5385 14.6644 19.5355 14.7479 19.5263 14.8333L14.6439 14.309ZM14.6276 14.7086C14.6656 16.2046 15.8035 17.4762 17.3322 17.6379L17.8487 12.7546C18.8036 12.8556 19.5127 13.6493 19.5365 14.5837L14.6276 14.7086ZM17.331 17.6378C18.9923 17.8143 20.4814 16.6102 20.6573 14.9494L15.7741 14.4324C15.8838 13.3961 16.813 12.6446 17.8499 12.7548L17.331 17.6378Z" fill="#0A191E" mask="url(#path-10-inside-5_401_2063)"/>
</g>
</g>
</g>
<g id="Group_13">
<g id="Group_14">
<path id="Vector_7" d="M14.4487 12.9703C14.4197 13.0632 14.4109 13.1641 14.4267 13.267C14.4268 13.2676 14.4269 13.2682 14.427 13.2689C14.427 13.2689 14.427 13.269 14.427 13.269C14.4271 13.2691 14.4271 13.2693 14.4271 13.2694C14.4307 13.2922 14.4354 13.3144 14.4412 13.3362C14.4616 13.4132 14.4953 13.4839 14.5393 13.5462C14.5604 13.4786 14.5708 13.4067 14.5689 13.333C14.5682 13.3058 14.5658 13.2775 14.5612 13.2482C14.5612 13.2481 14.5612 13.248 14.5612 13.2479C14.5612 13.2478 14.5612 13.2478 14.5612 13.2477C14.5611 13.247 14.5609 13.2463 14.5608 13.2456M14.4487 12.9703L14.5608 13.2456M14.4487 12.9703C14.5049 13.0498 14.5443 13.143 14.5608 13.2456M14.4487 12.9703L14.5608 13.2456M13.8216 12.7889C13.8215 12.7889 13.8215 12.7889 13.8215 12.7889C13.5365 12.8338 13.3345 13.0833 13.3417 13.3642C13.3423 13.3889 13.3445 13.4139 13.3485 13.4389C13.3974 13.749 13.6883 13.9608 13.9984 13.9119C13.9985 13.9119 13.9985 13.9119 13.9985 13.9119L13.9985 13.9119L13.8216 12.7889Z" fill="black" stroke="#0A191E" stroke-width="2.45524"/>
</g>
</g>
</g>
</svg>
