<svg width="17" height="29" viewBox="0 0 17 29" fill="none" xmlns="http://www.w3.org/2000/svg">
<path id="Vector" d="M16.4635 10.6249C16.4635 9.4288 15.7017 8.41041 14.6447 8.04089C14.8212 7.67751 14.9207 7.26905 14.9207 6.83737C14.9207 5.3304 13.712 4.10439 12.2263 4.10439H11.5462C10.9761 4.10439 10.497 3.67126 10.4317 3.0968L10.1155 0.316772H7.95597C6.67071 0.316772 5.48788 0.887201 4.71078 1.88187C4.20356 2.53107 3.90863 3.30951 3.8478 4.14954C2.59271 4.38183 1.638 5.49829 1.638 6.83737C1.638 7.26911 1.73756 7.67751 1.91406 8.04089C0.856983 8.41047 0.0952148 9.42886 0.0952148 10.6249C0.0952148 11.556 0.556986 12.3794 1.26007 12.8731L6.17866 28.9613H10.3801L15.2987 12.8731C16.0018 12.3795 16.4635 11.556 16.4635 10.6249ZM2.78962 9.57034H8.10848V7.89196H4.33235C3.75905 7.89196 3.29265 7.41887 3.29265 6.83737C3.29265 6.25586 3.75905 5.78278 4.33235 5.78278H6.66933V4.10439H5.51496C5.5737 3.66471 5.7384 3.26889 6.00757 2.92432C6.46217 2.34248 7.19051 1.99516 7.95597 1.99516H8.64074L8.7879 3.28914C8.94957 4.71074 10.1354 5.78278 11.5462 5.78278H12.2264C12.7997 5.78278 13.2661 6.25586 13.2661 6.83737C13.2661 7.41887 12.7997 7.89196 12.2264 7.89196H11.0284V9.57034H13.7691C14.3424 9.57034 14.8088 10.0435 14.8088 10.625C14.8088 11.2065 14.3424 11.6796 13.7691 11.6796H2.78962C2.21632 11.6796 1.74991 11.2065 1.74991 10.625C1.74991 10.0435 2.21632 9.57034 2.78962 9.57034ZM9.16076 27.2829H7.39795L3.14069 13.358H13.418L9.16076 27.2829Z" fill="black"/>
</svg>
