<svg width="30" height="23" viewBox="0 0 30 23" fill="none" xmlns="http://www.w3.org/2000/svg">
<g id="Group">
<path id="Vector" d="M26.9889 7.63262C26.6002 5.71226 24.8996 4.26196 22.8663 4.26196C22.2541 4.26196 21.6557 4.39598 21.109 4.64741L20.9133 4.01832C20.5594 2.88051 19.7278 1.95954 18.6319 1.49165C17.5361 1.0237 16.2959 1.05991 15.2292 1.59102C14.4532 1.97737 13.5274 1.91242 12.8131 1.42152L12.6421 1.3041C11.8444 0.755943 10.875 0.510578 9.91258 0.613459C8.95011 0.716284 8.05443 1.16078 7.39053 1.86513L5.3948 3.98223L2.64844 2.95832V7.63262H0.776367V10.698C0.776367 15.4904 3.16423 19.9355 7.16393 22.5885L7.37387 22.7277H22.698L22.9079 22.5885C26.9077 19.9355 29.2955 15.4905 29.2955 10.698V7.63262H26.9889ZM25.2593 7.63262H22.5291C22.4182 7.0843 22.2003 6.5743 21.8982 6.12545C22.2025 5.99968 22.531 5.933 22.8663 5.933C23.9715 5.93306 24.9131 6.64415 25.2593 7.63262ZM20.7996 7.63262H16.0136C16.3597 6.64415 17.3014 5.933 18.4066 5.933C19.5118 5.93306 20.4534 6.64415 20.7996 7.63262ZM8.60649 3.0113C9.41962 2.14881 10.7187 2.00984 11.6957 2.68126L11.8666 2.79868C13.081 3.63326 14.6549 3.74371 15.974 3.08688C16.6015 2.7744 17.3311 2.75306 17.9757 3.0284C18.566 3.28045 19.0253 3.75641 19.2584 4.34874C18.9833 4.29193 18.6984 4.2619 18.4066 4.2619C16.4838 4.2619 14.8594 5.5593 14.3598 7.32432L7.09408 4.61561L8.60649 3.0113ZM4.31948 5.36468L10.4029 7.63262H4.31948V5.36468ZM2.44741 9.30367H27.6245C27.6245 9.30367 27.6222 10.8844 27.6202 10.9774H2.4517C2.44964 10.8844 2.44741 9.30367 2.44741 9.30367ZM22.1898 21.0567H7.88204C5.01569 19.0743 3.12691 16.0331 2.59881 12.6485H27.473C26.945 16.0331 25.0562 19.0743 22.1898 21.0567Z" fill="#F1F2F6"/>
</g>
</svg>
