<svg width="12" height="14" viewBox="0 0 12 14" fill="none" xmlns="http://www.w3.org/2000/svg">
<g id="Group 684">
<path id="Vector" d="M2.49845 1.3681L0.72522 3.73241V12.0075C0.72522 12.321 0.849768 12.6217 1.07146 12.8434C1.29316 13.0651 1.59385 13.1896 1.90737 13.1896H10.1825C10.496 13.1896 10.7967 13.0651 11.0184 12.8434C11.2401 12.6217 11.3646 12.321 11.3646 12.0075V3.73241L9.59137 1.3681H2.49845Z" stroke="#F8F8F8" stroke-width="1.22762" stroke-linecap="round" stroke-linejoin="round"/>
<path id="Vector_2" d="M0.724487 3.73279H11.3639" stroke="#F8F8F8" stroke-width="1.22762" stroke-linecap="round" stroke-linejoin="round"/>
<path id="Vector_3" d="M8.4083 6.0968C8.4083 6.72386 8.15921 7.32523 7.71581 7.76862C7.27242 8.21201 6.67105 8.46111 6.044 8.46111C5.41694 8.46111 4.81557 8.21201 4.37218 7.76862C3.92878 7.32523 3.67969 6.72386 3.67969 6.0968" stroke="#F8F8F8" stroke-width="1.22762" stroke-linecap="round" stroke-linejoin="round"/>
</g>
</svg>
